<?xml version="1.0" encoding="UTF-8" standalone="no"?>
<svg
   width="1024"
   height="1024"
   viewBox="0 0 24 24"
   version="1.1"
   id="svg1"
   sodipodi:docname="cloud.svg"
   inkscape:version="1.4.3 (0d15f75, 2025-12-25)"
   xmlns:inkscape="http://www.inkscape.org/namespaces/inkscape"
   xmlns:sodipodi="http://sodipodi.sourceforge.net/DTD/sodipodi-0.dtd"
   xmlns="http://www.w3.org/2000/svg"
   xmlns:svg="http://www.w3.org/2000/svg">
  <defs
     id="defs1" />
  <sodipodi:namedview
     id="namedview1"
     pagecolor="#ffffff"
     bordercolor="#000000"
     borderopacity="0.25"
     inkscape:showpageshadow="2"
     inkscape:pageopacity="0.0"
     inkscape:pagecheckerboard="0"
     inkscape:deskcolor="#d1d1d1"
     inkscape:zoom="0.17917336"
     inkscape:cx="1269.72"
     inkscape:cy="1816.6763"
     inkscape:window-width="1512"
     inkscape:window-height="916"
     inkscape:window-x="0"
     inkscape:window-y="38"
     inkscape:window-maximized="1"
     inkscape:current-layer="svg1" />
  <path
     style="baseline-shift:baseline;display:inline;overflow:visible;vector-effect:none;enable-background:accumulate;stop-color:#000000;stop-opacity:1;opacity:1"
     d="m 12,3.8144531 c -2.8732652,0 -5.3632053,1.5945056 -6.6894531,3.9316406 C 2.3107644,8.2228712 0,10.779419 0,13.900391 c 0,3.462454 2.8275114,6.285156 6.2929687,6.285156 H 18.658203 C 21.600089,20.185547 24,17.789116 24,14.849609 24,12.179672 21.995972,10.035707 19.423828,9.65625 18.577773,6.3075989 15.600033,3.8144531 12,3.8144531 Z m 0,1.171875 c 3.184652,0 5.822443,2.2577096 6.416016,5.2656249 l 0.08789,0.439453 0.447266,0.03125 c 2.17535,0.150421 3.876953,1.922551 3.876953,4.126953 0,2.304688 -1.861339,4.164063 -4.169922,4.164063 H 6.2929687 c -2.8313004,0 -5.1210937,-2.286502 -5.1210937,-5.113281 0,-2.639441 1.9947393,-4.8072128 4.5644531,-5.0800785 l 0.3125,-0.033203 0.1445313,-0.2792969 C 7.284236,6.4158321 9.4725188,4.9863281 12,4.9863281 Z"
     id="path1" />
</svg>
